<svg id="visual" viewBox="0 0 1000 50" width="1000" height="50" xmlns="http://www.w3.org/2000/svg" xmlns:xlink="http://www.w3.org/1999/xlink" version="1.1"><path d="M0 17L13.8 16.7C27.7 16.3 55.3 15.7 83.2 15.3C111 15 139 15 166.8 16.2C194.7 17.3 222.3 19.7 250 20.3C277.7 21 305.3 20 333.2 18.8C361 17.7 389 16.3 416.8 16.7C444.7 17 472.3 19 500 18.8C527.7 18.7 555.3 16.3 583.2 16C611 15.7 639 17.3 666.8 18.7C694.7 20 722.3 21 750 21.3C777.7 21.7 805.3 21.3 833.2 20.2C861 19 889 17 916.8 16.3C944.7 15.7 972.3 16.3 986.2 16.7L1000 17L1000 0L986.2 0C972.3 0 944.7 0 916.8 0C889 0 861 0 833.2 0C805.3 0 777.7 0 750 0C722.3 0 694.7 0 666.8 0C639 0 611 0 583.2 0C555.3 0 527.7 0 500 0C472.3 0 444.7 0 416.8 0C389 0 361 0 333.2 0C305.3 0 277.7 0 250 0C222.3 0 194.7 0 166.8 0C139 0 111 0 83.2 0C55.3 0 27.7 0 13.8 0L0 0Z" fill="#f9afa5"></path><path d="M0 16L13.8 15.5C27.7 15 55.3 14 83.2 13.5C111 13 139 13 166.8 12.3C194.7 11.7 222.3 10.3 250 9.7C277.7 9 305.3 9 333.2 8.5C361 8 389 7 416.8 6.5C444.7 6 472.3 6 500 7.2C527.7 8.3 555.3 10.7 583.2 12.3C611 14 639 15 666.8 14C694.7 13 722.3 10 750 8.8C777.7 7.7 805.3 8.3 833.2 8.3C861 8.3 889 7.7 916.8 7.3C944.7 7 972.3 7 986.2 7L1000 7L1000 0L986.2 0C972.3 0 944.7 0 916.8 0C889 0 861 0 833.2 0C805.3 0 777.7 0 750 0C722.3 0 694.7 0 666.8 0C639 0 611 0 583.2 0C555.3 0 527.7 0 500 0C472.3 0 444.7 0 416.8 0C389 0 361 0 333.2 0C305.3 0 277.7 0 250 0C222.3 0 194.7 0 166.8 0C139 0 111 0 83.2 0C55.3 0 27.7 0 13.8 0L0 0Z" fill="#dc787b"></path><path d="M0 3L13.8 3.3C27.7 3.7 55.3 4.3 83.2 5.5C111 6.7 139 8.3 166.8 8.3C194.7 8.3 222.3 6.7 250 5.3C277.7 4 305.3 3 333.2 3.7C361 4.3 389 6.7 416.8 6.7C444.7 6.7 472.3 4.3 500 3.8C527.7 3.3 555.3 4.7 583.2 5.5C611 6.3 639 6.7 666.8 6.2C694.7 5.7 722.3 4.3 750 3.2C777.7 2 805.3 1 833.2 1.5C861 2 889 4 916.8 4.8C944.7 5.7 972.3 5.3 986.2 5.2L1000 5L1000 0L986.2 0C972.3 0 944.7 0 916.8 0C889 0 861 0 833.2 0C805.3 0 777.7 0 750 0C722.3 0 694.7 0 666.8 0C639 0 611 0 583.2 0C555.3 0 527.7 0 500 0C472.3 0 444.7 0 416.8 0C389 0 361 0 333.2 0C305.3 0 277.7 0 250 0C222.3 0 194.7 0 166.8 0C139 0 111 0 83.2 0C55.3 0 27.7 0 13.8 0L0 0Z" fill="#bb3e59"></path></svg>