<svg id="visual" viewBox="0 0 900 675" width="900" height="675" xmlns="http://www.w3.org/2000/svg" xmlns:xlink="http://www.w3.org/1999/xlink" version="1.1"><path d="M845 675L851 664.8C857 654.7 869 634.3 875 613.8C881 593.3 881 572.7 875 552.2C869 531.7 857 511.3 852.5 491C848 470.7 851 450.3 857 429.8C863 409.3 872 388.7 872 368.2C872 347.7 863 327.3 857 306.8C851 286.3 848 265.7 852.5 245.2C857 224.7 869 204.3 875 184C881 163.7 881 143.3 878 122.8C875 102.3 869 81.7 867.5 61.2C866 40.7 869 20.3 870.5 10.2L872 0L900 0L900 10.2C900 20.3 900 40.7 900 61.2C900 81.7 900 102.3 900 122.8C900 143.3 900 163.7 900 184C900 204.3 900 224.7 900 245.2C900 265.7 900 286.3 900 306.8C900 327.3 900 347.7 900 368.2C900 388.7 900 409.3 900 429.8C900 450.3 900 470.7 900 491C900 511.3 900 531.7 900 552.2C900 572.7 900 593.3 900 613.8C900 634.3 900 654.7 900 664.8L900 675Z" fill="#f2c3d5"></path><path d="M782 675L783.5 664.8C785 654.7 788 634.3 786.5 613.8C785 593.3 779 572.7 776 552.2C773 531.7 773 511.3 761 491C749 470.7 725 450.3 719 429.8C713 409.3 725 388.7 737 368.2C749 347.7 761 327.3 764 306.8C767 286.3 761 265.7 755 245.2C749 224.7 743 204.3 746 184C749 163.7 761 143.3 765.5 122.8C770 102.3 767 81.7 764 61.2C761 40.7 758 20.3 756.5 10.2L755 0L873 0L871.5 10.2C870 20.3 867 40.7 868.5 61.2C870 81.7 876 102.3 879 122.8C882 143.3 882 163.7 876 184C870 204.3 858 224.7 853.5 245.2C849 265.7 852 286.3 858 306.8C864 327.3 873 347.7 873 368.2C873 388.7 864 409.3 858 429.8C852 450.3 849 470.7 853.5 491C858 511.3 870 531.7 876 552.2C882 572.7 882 593.3 876 613.8C870 634.3 858 654.7 852 664.8L846 675Z" fill="#f5c7d5"></path><path d="M755 675L755 664.8C755 654.7 755 634.3 747.5 613.8C740 593.3 725 572.7 717.5 552.2C710 531.7 710 511.3 701 491C692 470.7 674 450.3 671 429.8C668 409.3 680 388.7 686 368.2C692 347.7 692 327.3 695 306.8C698 286.3 704 265.7 701 245.2C698 224.7 686 204.3 686 184C686 163.7 698 143.3 708.5 122.8C719 102.3 728 81.7 729.5 61.2C731 40.7 725 20.3 722 10.2L719 0L756 0L757.5 10.2C759 20.3 762 40.7 765 61.2C768 81.7 771 102.3 766.5 122.8C762 143.3 750 163.7 747 184C744 204.3 750 224.7 756 245.2C762 265.7 768 286.3 765 306.8C762 327.3 750 347.7 738 368.2C726 388.7 714 409.3 720 429.8C726 450.3 750 470.7 762 491C774 511.3 774 531.7 777 552.2C780 572.7 786 593.3 787.5 613.8C789 634.3 786 654.7 784.5 664.8L783 675Z" fill="#f7cbd6"></path><path d="M710 675L714.5 664.8C719 654.7 728 634.3 722 613.8C716 593.3 695 572.7 687.5 552.2C680 531.7 686 511.3 677 491C668 470.7 644 450.3 635 429.8C626 409.3 632 388.7 638 368.2C644 347.7 650 327.3 656 306.8C662 286.3 668 265.7 665 245.2C662 224.7 650 204.3 648.5 184C647 163.7 656 143.3 669.5 122.8C683 102.3 701 81.7 699.5 61.2C698 40.7 677 20.3 666.5 10.2L656 0L720 0L723 10.2C726 20.3 732 40.7 730.5 61.2C729 81.7 720 102.3 709.5 122.8C699 143.3 687 163.7 687 184C687 204.3 699 224.7 702 245.2C705 265.7 699 286.3 696 306.8C693 327.3 693 347.7 687 368.2C681 388.7 669 409.3 672 429.8C675 450.3 693 470.7 702 491C711 511.3 711 531.7 718.5 552.2C726 572.7 741 593.3 748.5 613.8C756 634.3 756 654.7 756 664.8L756 675Z" fill="#f9d0d7"></path><path d="M674 675L675.5 664.8C677 654.7 680 634.3 657.5 613.8C635 593.3 587 572.7 567.5 552.2C548 531.7 557 511.3 564.5 491C572 470.7 578 450.3 579.5 429.8C581 409.3 578 388.7 582.5 368.2C587 347.7 599 327.3 596 306.8C593 286.3 575 265.7 567.5 245.2C560 224.7 563 204.3 569 184C575 163.7 584 143.3 599 122.8C614 102.3 635 81.7 630.5 61.2C626 40.7 596 20.3 581 10.2L566 0L657 0L667.5 10.2C678 20.3 699 40.7 700.5 61.2C702 81.7 684 102.3 670.5 122.8C657 143.3 648 163.7 649.5 184C651 204.3 663 224.7 666 245.2C669 265.7 663 286.3 657 306.8C651 327.3 645 347.7 639 368.2C633 388.7 627 409.3 636 429.8C645 450.3 669 470.7 678 491C687 511.3 681 531.7 688.5 552.2C696 572.7 717 593.3 723 613.8C729 634.3 720 654.7 715.5 664.8L711 675Z" fill="#fad4d8"></path><path d="M638 675L636.5 664.8C635 654.7 632 634.3 611 613.8C590 593.3 551 572.7 537.5 552.2C524 531.7 536 511.3 539 491C542 470.7 536 450.3 537.5 429.8C539 409.3 548 388.7 557 368.2C566 347.7 575 327.3 566 306.8C557 286.3 530 265.7 521 245.2C512 224.7 521 204.3 530 184C539 163.7 548 143.3 560 122.8C572 102.3 587 81.7 581 61.2C575 40.7 548 20.3 534.5 10.2L521 0L567 0L582 10.2C597 20.3 627 40.7 631.5 61.2C636 81.7 615 102.3 600 122.8C585 143.3 576 163.7 570 184C564 204.3 561 224.7 568.5 245.2C576 265.7 594 286.3 597 306.8C600 327.3 588 347.7 583.5 368.2C579 388.7 582 409.3 580.5 429.8C579 450.3 573 470.7 565.5 491C558 511.3 549 531.7 568.5 552.2C588 572.7 636 593.3 658.5 613.8C681 634.3 678 654.7 676.5 664.8L675 675Z" fill="#fcd9da"></path><path d="M503 675L500 664.8C497 654.7 491 634.3 468.5 613.8C446 593.3 407 572.7 381.5 552.2C356 531.7 344 511.3 348.5 491C353 470.7 374 450.3 369.5 429.8C365 409.3 335 388.7 320 368.2C305 347.7 305 327.3 308 306.8C311 286.3 317 265.7 327.5 245.2C338 224.7 353 204.3 360.5 184C368 163.7 368 143.3 374 122.8C380 102.3 392 81.7 396.5 61.2C401 40.7 398 20.3 396.5 10.2L395 0L522 0L535.5 10.2C549 20.3 576 40.7 582 61.2C588 81.7 573 102.3 561 122.8C549 143.3 540 163.7 531 184C522 204.3 513 224.7 522 245.2C531 265.7 558 286.3 567 306.8C576 327.3 567 347.7 558 368.2C549 388.7 540 409.3 538.5 429.8C537 450.3 543 470.7 540 491C537 511.3 525 531.7 538.5 552.2C552 572.7 591 593.3 612 613.8C633 634.3 636 654.7 637.5 664.8L639 675Z" fill="#fcdddc"></path><path d="M440 675L435.5 664.8C431 654.7 422 634.3 402.5 613.8C383 593.3 353 572.7 327.5 552.2C302 531.7 281 511.3 287 491C293 470.7 326 450.3 327.5 429.8C329 409.3 299 388.7 284 368.2C269 347.7 269 327.3 267.5 306.8C266 286.3 263 265.7 275 245.2C287 224.7 314 204.3 323 184C332 163.7 323 143.3 323 122.8C323 102.3 332 81.7 335 61.2C338 40.7 335 20.3 333.5 10.2L332 0L396 0L397.5 10.2C399 20.3 402 40.7 397.5 61.2C393 81.7 381 102.3 375 122.8C369 143.3 369 163.7 361.5 184C354 204.3 339 224.7 328.5 245.2C318 265.7 312 286.3 309 306.8C306 327.3 306 347.7 321 368.2C336 388.7 366 409.3 370.5 429.8C375 450.3 354 470.7 349.5 491C345 511.3 357 531.7 382.5 552.2C408 572.7 447 593.3 469.5 613.8C492 634.3 498 654.7 501 664.8L504 675Z" fill="#fde2df"></path><path d="M350 675L345.5 664.8C341 654.7 332 634.3 320 613.8C308 593.3 293 572.7 276.5 552.2C260 531.7 242 511.3 240.5 491C239 470.7 254 450.3 251 429.8C248 409.3 227 388.7 212 368.2C197 347.7 188 327.3 191 306.8C194 286.3 209 265.7 219.5 245.2C230 224.7 236 204.3 237.5 184C239 163.7 236 143.3 245 122.8C254 102.3 275 81.7 284 61.2C293 40.7 290 20.3 288.5 10.2L287 0L333 0L334.5 10.2C336 20.3 339 40.7 336 61.2C333 81.7 324 102.3 324 122.8C324 143.3 333 163.7 324 184C315 204.3 288 224.7 276 245.2C264 265.7 267 286.3 268.5 306.8C270 327.3 270 347.7 285 368.2C300 388.7 330 409.3 328.5 429.8C327 450.3 294 470.7 288 491C282 511.3 303 531.7 328.5 552.2C354 572.7 384 593.3 403.5 613.8C423 634.3 432 654.7 436.5 664.8L441 675Z" fill="#fee6e3"></path><path d="M107 675L107 664.8C107 654.7 107 634.3 101 613.8C95 593.3 83 572.7 78.5 552.2C74 531.7 77 511.3 84.5 491C92 470.7 104 450.3 108.5 429.8C113 409.3 110 388.7 104 368.2C98 347.7 89 327.3 87.5 306.8C86 286.3 92 265.7 90.5 245.2C89 224.7 80 204.3 81.5 184C83 163.7 95 143.3 99.5 122.8C104 102.3 101 81.7 93.5 61.2C86 40.7 74 20.3 68 10.2L62 0L288 0L289.5 10.2C291 20.3 294 40.7 285 61.2C276 81.7 255 102.3 246 122.8C237 143.3 240 163.7 238.5 184C237 204.3 231 224.7 220.5 245.2C210 265.7 195 286.3 192 306.8C189 327.3 198 347.7 213 368.2C228 388.7 249 409.3 252 429.8C255 450.3 240 470.7 241.5 491C243 511.3 261 531.7 277.5 552.2C294 572.7 309 593.3 321 613.8C333 634.3 342 654.7 346.5 664.8L351 675Z" fill="#feeae6"></path><path d="M71 675L71 664.8C71 654.7 71 634.3 68 613.8C65 593.3 59 572.7 53 552.2C47 531.7 41 511.3 45.5 491C50 470.7 65 450.3 72.5 429.8C80 409.3 80 388.7 74 368.2C68 347.7 56 327.3 53 306.8C50 286.3 56 265.7 57.5 245.2C59 224.7 56 204.3 57.5 184C59 163.7 65 143.3 65 122.8C65 102.3 59 81.7 54.5 61.2C50 40.7 47 20.3 45.5 10.2L44 0L63 0L69 10.2C75 20.3 87 40.7 94.5 61.2C102 81.7 105 102.3 100.5 122.8C96 143.3 84 163.7 82.5 184C81 204.3 90 224.7 91.5 245.2C93 265.7 87 286.3 88.5 306.8C90 327.3 99 347.7 105 368.2C111 388.7 114 409.3 109.5 429.8C105 450.3 93 470.7 85.5 491C78 511.3 75 531.7 79.5 552.2C84 572.7 96 593.3 102 613.8C108 634.3 108 654.7 108 664.8L108 675Z" fill="#ffefea"></path><path d="M0 675L0 664.8C0 654.7 0 634.3 0 613.8C0 593.3 0 572.7 0 552.2C0 531.7 0 511.3 0 491C0 470.7 0 450.3 0 429.8C0 409.3 0 388.7 0 368.2C0 347.7 0 327.3 0 306.8C0 286.3 0 265.7 0 245.2C0 224.7 0 204.3 0 184C0 163.7 0 143.3 0 122.8C0 102.3 0 81.7 0 61.2C0 40.7 0 20.3 0 10.2L0 0L45 0L46.5 10.2C48 20.3 51 40.7 55.5 61.2C60 81.7 66 102.3 66 122.8C66 143.3 60 163.7 58.5 184C57 204.3 60 224.7 58.5 245.2C57 265.7 51 286.3 54 306.8C57 327.3 69 347.7 75 368.2C81 388.7 81 409.3 73.5 429.8C66 450.3 51 470.7 46.5 491C42 511.3 48 531.7 54 552.2C60 572.7 66 593.3 69 613.8C72 634.3 72 654.7 72 664.8L72 675Z" fill="#fff3ef"></path></svg>