<svg id="visual" viewBox="0 0 960 540" width="960" height="540" xmlns="http://www.w3.org/2000/svg" xmlns:xlink="http://www.w3.org/1999/xlink" version="1.1"><path d="M527 540L514.2 528.8C501.3 517.7 475.7 495.3 486.8 472.8C498 450.3 546 427.7 590.8 405.2C635.7 382.7 677.3 360.3 674.2 337.8C671 315.3 623 292.7 632.7 270.2C642.3 247.7 709.7 225.3 735.3 202.8C761 180.3 745 157.7 732.2 135.2C719.3 112.7 709.7 90.3 676 67.8C642.3 45.3 584.7 22.7 555.8 11.3L527 0L960 0L960 11.3C960 22.7 960 45.3 960 67.8C960 90.3 960 112.7 960 135.2C960 157.7 960 180.3 960 202.8C960 225.3 960 247.7 960 270.2C960 292.7 960 315.3 960 337.8C960 360.3 960 382.7 960 405.2C960 427.7 960 450.3 960 472.8C960 495.3 960 517.7 960 528.8L960 540Z" fill="#ffd5d2"></path><path d="M210 540L224.5 528.8C239 517.7 268 495.3 280.8 472.8C293.7 450.3 290.3 427.7 325.5 405.2C360.7 382.7 434.3 360.3 455.2 337.8C476 315.3 444 292.7 440.8 270.2C437.7 247.7 463.3 225.3 458.5 202.8C453.7 180.3 418.3 157.7 415 135.2C411.7 112.7 440.3 90.3 410 67.8C379.7 45.3 290.3 22.7 245.7 11.3L201 0L528 0L556.8 11.3C585.7 22.7 643.3 45.3 677 67.8C710.7 90.3 720.3 112.7 733.2 135.2C746 157.7 762 180.3 736.3 202.8C710.7 225.3 643.3 247.7 633.7 270.2C624 292.7 672 315.3 675.2 337.8C678.3 360.3 636.7 382.7 591.8 405.2C547 427.7 499 450.3 487.8 472.8C476.7 495.3 502.3 517.7 515.2 528.8L528 540Z" fill="#ffdad5"></path><path d="M0 540L0 528.8C0 517.7 0 495.3 0 472.8C0 450.3 0 427.7 0 405.2C0 382.7 0 360.3 0 337.8C0 315.3 0 292.7 0 270.2C0 247.7 0 225.3 0 202.8C0 180.3 0 157.7 0 135.2C0 112.7 0 90.3 0 67.8C0 45.3 0 22.7 0 11.3L0 0L202 0L246.7 11.3C291.3 22.7 380.7 45.3 411 67.8C441.3 90.3 412.7 112.7 416 135.2C419.3 157.7 454.7 180.3 459.5 202.8C464.3 225.3 438.7 247.7 441.8 270.2C445 292.7 477 315.3 456.2 337.8C435.3 360.3 361.7 382.7 326.5 405.2C291.3 427.7 294.7 450.3 281.8 472.8C269 495.3 240 517.7 225.5 528.8L211 540Z" fill="#ffdfd9"></path></svg>