<svg id="visual" viewBox="0 0 1000 50" width="1000" height="50" xmlns="http://www.w3.org/2000/svg" xmlns:xlink="http://www.w3.org/1999/xlink" version="1.1"><path d="M0 31L13.8 31.3C27.7 31.7 55.3 32.3 83.2 32.7C111 33 139 33 166.8 31.8C194.7 30.7 222.3 28.3 250 27.7C277.7 27 305.3 28 333.2 29.2C361 30.3 389 31.7 416.8 31.3C444.7 31 472.3 29 500 29.2C527.7 29.3 555.3 31.7 583.2 32C611 32.3 639 30.7 666.8 29.3C694.7 28 722.3 27 750 26.7C777.7 26.3 805.3 26.7 833.2 27.8C861 29 889 31 916.8 31.7C944.7 32.3 972.3 31.7 986.2 31.3L1000 31L1000 51L986.2 51C972.3 51 944.7 51 916.8 51C889 51 861 51 833.2 51C805.3 51 777.7 51 750 51C722.3 51 694.7 51 666.8 51C639 51 611 51 583.2 51C555.3 51 527.7 51 500 51C472.3 51 444.7 51 416.8 51C389 51 361 51 333.2 51C305.3 51 277.7 51 250 51C222.3 51 194.7 51 166.8 51C139 51 111 51 83.2 51C55.3 51 27.7 51 13.8 51L0 51Z" fill="#f9afa5"></path><path d="M0 32L13.8 32.5C27.7 33 55.3 34 83.2 34.5C111 35 139 35 166.8 35.7C194.7 36.3 222.3 37.7 250 38.3C277.7 39 305.3 39 333.2 39.5C361 40 389 41 416.8 41.5C444.7 42 472.3 42 500 40.8C527.7 39.7 555.3 37.3 583.2 35.7C611 34 639 33 666.8 34C694.7 35 722.3 38 750 39.2C777.7 40.3 805.3 39.7 833.2 39.7C861 39.7 889 40.3 916.8 40.7C944.7 41 972.3 41 986.2 41L1000 41L1000 51L986.2 51C972.3 51 944.7 51 916.8 51C889 51 861 51 833.2 51C805.3 51 777.7 51 750 51C722.3 51 694.7 51 666.8 51C639 51 611 51 583.2 51C555.3 51 527.7 51 500 51C472.3 51 444.7 51 416.8 51C389 51 361 51 333.2 51C305.3 51 277.7 51 250 51C222.3 51 194.7 51 166.8 51C139 51 111 51 83.2 51C55.3 51 27.7 51 13.8 51L0 51Z" fill="#dc787b"></path><path d="M0 45L13.8 44.7C27.7 44.3 55.3 43.7 83.2 42.5C111 41.3 139 39.7 166.8 39.7C194.7 39.7 222.3 41.3 250 42.7C277.7 44 305.3 45 333.2 44.3C361 43.7 389 41.3 416.8 41.3C444.7 41.3 472.3 43.7 500 44.2C527.7 44.7 555.3 43.3 583.2 42.5C611 41.7 639 41.3 666.8 41.8C694.7 42.3 722.3 43.7 750 44.8C777.7 46 805.3 47 833.2 46.5C861 46 889 44 916.8 43.2C944.7 42.3 972.3 42.7 986.2 42.8L1000 43L1000 51L986.2 51C972.3 51 944.7 51 916.8 51C889 51 861 51 833.2 51C805.3 51 777.7 51 750 51C722.3 51 694.7 51 666.8 51C639 51 611 51 583.2 51C555.3 51 527.7 51 500 51C472.3 51 444.7 51 416.8 51C389 51 361 51 333.2 51C305.3 51 277.7 51 250 51C222.3 51 194.7 51 166.8 51C139 51 111 51 83.2 51C55.3 51 27.7 51 13.8 51L0 51Z" fill="#bb3e59"></path></svg>